<svg width="454" height="132" viewBox="0 0 454 132" fill="none" xmlns="http://www.w3.org/2000/svg">
<g clip-path="url(#clip0_61_993)">
<path d="M141.074 33.8932C142.362 33.7245 143.664 34.0664 144.704 34.8462C145.624 35.618 146.331 36.6133 146.759 37.737C147.254 39.0044 147.624 40.3176 147.862 41.6575C148.125 43.0817 148.39 44.4269 148.653 45.6933C149.126 48.0682 149.521 50.4559 149.84 52.8564C150.159 55.257 150.423 57.698 150.631 60.1795C150.682 61.5524 150.748 62.5693 150.829 63.2302C150.877 63.758 150.997 64.2766 151.186 64.7716C151.339 65.1364 151.621 65.4323 151.977 65.603L153.636 66.4344C155.899 67.6497 157.268 69.3125 157.745 71.4231C157.85 71.8126 157.85 72.2233 157.745 72.6127C157.655 72.9543 157.479 73.2671 157.234 73.5209C157.022 73.7445 156.746 73.8965 156.443 73.9558C156.122 74.0002 155.796 73.9152 155.537 73.7191C154.76 73.2147 153.894 72.8652 152.986 72.6894C152.445 72.538 151.878 72.5118 151.327 72.6127C151.171 72.6643 151.034 72.758 150.93 72.8834C150.825 73.0087 150.757 73.1608 150.733 73.3226C150.65 73.8064 150.638 74.2997 150.695 74.7872C150.747 75.5112 150.747 76.2379 150.695 76.9618C150.588 79.179 150.418 81.2508 150.185 83.1788C149.951 85.1059 149.674 86.9136 149.355 88.6018C149.199 89.6516 148.837 90.661 148.29 91.5695C147.809 92.4166 147.133 93.1358 146.318 93.6674C145.579 94.1359 144.694 94.3176 143.83 94.1788C142.731 93.9223 141.755 93.2914 141.068 92.3947C141.173 90.5483 141.293 88.6489 141.424 86.6957C141.557 84.7433 141.648 82.7901 141.699 80.8378C141.75 79.0979 141.75 77.7122 141.699 76.6803C141.71 75.8926 141.519 75.1151 141.144 74.4227C140.978 74.185 140.751 73.9969 140.487 73.8786C140.223 73.7603 139.932 73.7163 139.645 73.7512C138.646 73.8466 137.663 74.0723 136.723 74.4227C135.196 75.0025 133.563 75.5568 131.823 76.0855C129.988 76.6513 128.194 77.3393 126.451 78.145L123.962 79.3346C123.343 79.6385 122.791 80.0624 122.335 80.582C121.834 81.1793 121.448 81.8648 121.194 82.6025C120.791 83.7651 120.473 84.9562 120.244 86.1649C119.601 88.9459 119.328 91.8 119.433 94.6524C119.591 97.0018 120.09 98.7834 120.932 99.9989C121.033 100.112 121.11 100.245 121.159 100.389C121.208 100.533 121.227 100.685 121.216 100.837C121.204 100.989 121.162 101.136 121.094 101.272C121.024 101.407 120.927 101.527 120.811 101.623C120.547 101.902 120.214 102.103 119.846 102.208C119.477 102.312 119.088 102.316 118.718 102.218C117.355 101.982 116.092 101.348 115.088 100.395C113.994 99.2806 113.228 97.8842 112.874 96.36C112.357 94.2108 112.142 92.0002 112.237 89.7912C112.351 86.6023 112.741 83.4286 113.404 80.3067C113.77 78.4605 114.363 76.0578 115.184 73.0988C116.005 70.1397 117.032 66.9738 118.266 63.6012C119.503 60.2243 120.924 56.8132 122.528 53.3681C124.032 50.0888 125.801 46.9381 127.816 43.9472C129.548 41.3251 131.635 38.9574 134.018 36.912C135.98 35.1637 138.457 34.1039 141.074 33.8932ZM139.338 59.6231C139.126 58.5145 138.956 57.5125 138.828 56.6171C138.701 55.7217 138.503 54.5875 138.235 53.2146C137.92 51.5773 137.539 50.4815 137.093 49.9272C137.023 49.8044 136.929 49.6971 136.817 49.612C136.704 49.5268 136.576 49.4656 136.439 49.4321C136.302 49.3986 136.161 49.3934 136.021 49.4169C135.883 49.4405 135.75 49.4923 135.632 49.5691C134.916 50.093 134.324 50.7676 133.897 51.5453C133.162 52.7433 132.503 53.9865 131.925 55.2676C131.24 56.7472 130.634 58.2245 130.106 59.6998C129.579 61.1751 129.026 62.6802 128.447 64.2152C127.707 66.347 127.444 67.6795 127.657 68.2124C127.869 68.7454 128.932 68.6538 130.847 67.9375C131.889 67.564 132.954 67.2606 134.037 67.0292C134.956 66.8459 136.019 66.6221 137.226 66.3577C137.887 66.2575 138.53 66.0704 139.14 65.8013C139.343 65.7035 139.52 65.5594 139.658 65.3806C139.796 65.2018 139.89 64.9932 139.932 64.7716C140.033 64.1348 140.021 63.485 139.894 62.8529C139.732 62.0342 139.545 60.964 139.332 59.6423L139.338 59.6231Z" fill="white"/>
<path d="M171.793 30.1904C172.159 30.2416 172.778 30.2949 173.65 30.3503C174.522 30.4058 175.47 30.4847 176.496 30.587C177.567 30.6988 178.633 30.8718 179.685 31.105C180.678 31.3108 181.636 31.6575 182.531 32.1347C183.3 32.5505 183.957 33.1475 184.445 33.8744C184.686 34.2671 184.846 34.7047 184.914 35.1609C184.982 35.617 184.957 36.0823 184.841 36.5285C184.719 37.1522 184.503 37.7538 184.202 38.3129C183.888 38.9184 183.598 39.5111 183.335 40.0909L182.384 42.0096C182.069 42.6407 181.781 43.2994 181.516 43.9859C181.045 44.9879 180.689 45.7277 180.451 46.2053C180.213 46.6828 180.159 47.0132 180.291 47.1965C180.424 47.3799 180.779 47.4716 181.357 47.4716C181.936 47.4716 182.805 47.4972 183.966 47.5483C185.965 47.655 187.879 47.7338 189.708 47.785C191.537 47.8362 193.156 47.8362 194.564 47.785C195.741 47.7565 196.915 47.6518 198.079 47.4716C198.719 47.4225 199.334 47.2016 199.859 46.832C201.437 45.6169 202.596 45.0625 203.336 45.1691C204.076 45.2758 204.444 46.1732 204.44 47.8617C204.437 49.0189 204.093 50.1496 203.451 51.1108C202.817 51.9805 201.975 52.6756 201.001 53.1318C199.84 53.6724 198.599 54.0202 197.326 54.1615C195.781 54.3521 194.224 54.4184 192.669 54.3597L191.329 54.3214L188.566 54.2446C187.46 54.219 186.198 54.1785 184.777 54.1231L180.273 53.9632C179.569 53.8905 178.857 53.9579 178.18 54.1615C177.671 54.3478 177.228 54.679 176.904 55.1144C176.508 55.6702 176.202 56.2854 175.997 56.9372C175.734 57.7047 175.418 58.6682 175.047 59.8281C173.514 64.1267 172.315 68.538 171.462 73.0224C170.804 76.4689 170.435 79.9646 170.358 83.4726C170.283 86.0744 170.575 88.6728 171.225 91.1921C171.678 93.0158 172.498 94.7268 173.637 96.2198C173.76 96.3258 173.861 96.4562 173.931 96.6034C174.003 96.7498 174.043 96.9096 174.05 97.0728C174.057 97.236 174.031 97.3983 173.973 97.5506C173.916 97.7029 173.827 97.8425 173.714 97.9594C173.453 98.2521 173.112 98.4616 172.732 98.5609C172.353 98.6601 171.953 98.6441 171.583 98.5154C169.585 98.1251 167.8 97.0122 166.568 95.3879C165.2 93.5659 164.194 91.4966 163.608 89.2928C162.888 86.6969 162.46 84.0278 162.332 81.3369C162.174 78.448 162.174 75.5529 162.332 72.6642C162.465 69.9203 162.744 67.1853 163.167 64.4713C163.593 61.8874 164.039 59.698 164.507 57.9029C164.677 57.1515 164.89 56.4105 165.145 55.6837C165.331 55.2293 165.438 54.7473 165.465 54.2574C165.48 54.1019 165.446 53.9456 165.368 53.8103C165.29 53.6749 165.173 53.5674 165.03 53.5027C164.535 53.3325 164.017 53.2398 163.493 53.2277C162.753 53.1765 162.147 53.151 161.675 53.151C161.356 53.1677 161.036 53.1419 160.724 53.0742C160.434 53.0578 160.159 52.943 159.944 52.7489C159.728 52.5547 159.585 52.2928 159.537 52.0061C159.375 51.2256 159.349 50.4227 159.461 49.6333C159.573 48.6698 159.759 47.7162 160.016 46.7808C160.28 45.8045 160.516 44.9517 160.724 44.2225C162.502 44.8136 164.324 45.2627 166.172 45.5656C166.612 45.669 167.068 45.6821 167.512 45.604C167.842 45.5148 168.126 45.3018 168.304 45.0093C168.539 44.6304 168.711 44.2156 168.814 43.7813C168.945 43.2781 169.144 42.6386 169.407 41.8626C170.301 39.121 170.985 36.7589 171.462 34.7762C171.938 32.7935 172.049 31.265 171.793 30.1904Z" fill="white"/>
<path d="M203.362 32.7232C202.648 33.7491 202.076 34.868 201.664 36.0489C200.954 37.7928 200.178 39.9034 199.336 42.3806C198.493 44.8579 197.611 47.6017 196.688 50.6119C195.765 53.6221 194.87 56.643 194.002 59.6746C193.135 62.7061 192.326 65.6247 191.578 68.4302C190.812 71.2273 190.174 73.6811 189.664 75.7917C189.372 77.0256 189.201 78.2851 189.153 79.5524C189.153 80.1919 189.326 80.4606 189.587 80.3071C190.045 79.909 190.42 79.4244 190.691 78.8808C191.228 77.9629 191.703 77.01 192.113 76.0283C192.641 74.8686 193.154 73.7472 193.651 72.6642C194.168 71.5573 194.763 70.4887 195.431 69.4664C196.158 68.344 196.963 67.2753 197.843 66.2685C198.909 65.0767 200.087 63.9889 201.358 63.0195C202.632 61.9347 204.091 61.0898 205.665 60.5252C207.034 59.9862 208.527 59.8486 209.971 60.1286C210.624 60.2658 211.243 60.5327 211.791 60.914C212.338 61.2952 212.805 61.7828 213.161 62.3479C213.952 63.5333 214.242 65.2623 214.028 67.5349C213.816 69.4365 213.539 71.3765 213.199 73.355C212.859 75.3334 212.51 77.316 212.153 79.303C211.838 81.2814 211.587 83.2615 211.4 85.2442C211.215 87.157 211.175 89.0816 211.279 91.0004C211.279 91.9156 211.426 92.8249 211.712 93.693C211.917 94.2246 212.225 94.7091 212.619 95.1196C213.003 95.5007 213.431 95.8329 213.895 96.1105C214.436 96.4554 214.917 96.8878 215.317 97.39C215.543 97.6028 215.677 97.8955 215.692 98.2059C215.706 98.5163 215.599 98.82 215.394 99.053C214.885 99.6477 214.251 100.121 213.538 100.441C212.669 100.852 211.754 101.158 210.813 101.349C210.012 101.549 209.183 101.603 208.364 101.508C206.944 101.363 205.591 100.83 204.452 99.9673C203.418 99.1371 202.605 98.0621 202.085 96.8398C201.506 95.4452 201.185 93.9563 201.141 92.4464C201.069 90.6841 201.189 88.9185 201.499 87.1823C201.865 85.1786 202.232 83.1598 202.602 81.1258C202.972 79.0919 203.315 77.073 203.629 75.069C203.681 74.7534 203.759 74.212 203.865 73.4445C203.97 72.7091 203.983 71.9637 203.904 71.2252C203.861 70.6024 203.627 70.0081 203.234 69.5239C202.864 69.0975 202.257 69.072 201.416 69.4472C200.648 69.8404 199.973 70.3944 199.438 71.0717C198.816 71.8473 198.273 72.6828 197.818 73.566C197.315 74.5168 196.841 75.5188 196.395 76.572C195.948 77.6251 195.523 78.6911 195.118 79.7698C194.54 81.2494 193.934 82.6736 193.3 84.0422C192.666 85.4108 191.98 86.8155 191.24 88.2573C189.819 90.6833 188.449 92.2924 187.131 93.0857C185.812 93.8789 184.653 94.1153 183.653 93.7956C183.132 93.6164 182.649 93.3355 182.235 92.9687C181.822 92.602 181.484 92.157 181.242 91.659C180.625 90.5142 180.286 89.239 180.253 87.9368C180.051 83.9118 180.13 79.8766 180.489 75.862C180.889 71.0525 181.548 66.2681 182.461 61.5293C183.417 56.4445 184.644 51.4146 186.136 46.4611C187.59 41.6057 189.44 36.8783 191.667 32.3266C192.013 31.6105 192.582 31.0267 193.287 30.6638C194.126 30.2208 195.064 30.0007 196.012 30.0242C197.198 30.0492 198.371 30.2652 199.489 30.6638C200.876 31.1507 202.182 31.8451 203.362 32.7232Z" fill="white"/>
<path d="M229.921 30.1904C230.287 30.2416 230.893 30.2949 231.74 30.3503C232.586 30.4058 233.534 30.4847 234.585 30.587C235.658 30.6946 236.723 30.8677 237.775 31.105C238.765 31.3195 239.722 31.6658 240.621 32.1347C241.399 32.5363 242.06 33.1362 242.535 33.8744C242.996 34.6779 243.125 35.6311 242.892 36.5285C242.77 37.1521 242.555 37.7536 242.254 38.3129C241.939 38.9184 241.649 39.5111 241.386 40.0909C234.689 53.5522 230.258 68.0313 228.276 82.9419C227.557 88.0436 227.424 93.211 227.88 98.343C228.356 102.607 229.252 105.523 230.566 107.092C230.808 107.321 230.952 107.635 230.966 107.969C230.98 108.302 230.864 108.628 230.642 108.876C230.389 109.18 230.05 109.399 229.669 109.505C229.288 109.612 228.885 109.6 228.511 109.472C226.808 109.035 225.321 107.995 224.326 106.542C222.894 104.595 221.815 102.41 221.136 100.089C220.228 97.0972 219.632 94.0193 219.356 90.9045C219.009 87.2327 218.969 83.5383 219.235 79.8593C219.297 76.2404 219.649 72.6322 220.287 69.0698C220.922 65.4797 221.672 62.009 222.539 58.6577C223.407 55.3063 224.328 52.1255 225.302 49.1152C226.276 46.105 227.144 43.3613 227.906 40.884C228.667 38.4068 229.245 36.2429 229.641 34.3924C230.013 33.0246 230.109 31.5959 229.921 30.1904Z" fill="white"/>
<path d="M256.953 70.0162C257.441 69.1067 257.838 68.1512 258.14 67.1637C258.39 66.3839 258.483 65.5622 258.414 64.7461C258.385 64.4119 258.286 64.0876 258.123 63.7946C257.96 63.5014 257.738 63.246 257.47 63.0448C256.708 62.566 255.814 62.342 254.918 62.4053C253.076 62.4053 251.392 63.4073 249.865 65.4112C248.122 67.945 246.889 70.7953 246.235 73.8024C245.971 74.911 245.695 76.2711 245.405 77.8829C245.117 79.4624 244.997 81.0683 245.048 82.6733C245.077 84.1605 245.398 85.6275 245.993 86.9902C246.28 87.632 246.706 88.2024 247.239 88.6608C247.772 89.1201 248.398 89.4557 249.074 89.6441C249.881 89.9032 250.756 89.846 251.524 89.4843C254.365 88.5893 257.445 86.8068 260.762 84.1378C264.537 81.0448 268.099 77.6981 271.423 74.1222C272.316 73.3845 272.935 73.1991 273.28 73.5658C273.624 73.9324 273.454 74.7234 272.77 75.9386C270.607 79.6102 268.136 83.0897 265.381 86.3383C262.671 89.5272 259.534 92.325 256.06 94.6525C254.476 95.7225 252.761 96.583 250.956 97.2105C249.318 97.78 247.581 98.008 245.852 97.8818C244.173 97.7455 242.551 97.2181 241.112 96.3408C239.475 95.3128 238.085 93.9341 237.041 92.3048C235.889 90.5282 235.109 88.5355 234.751 86.4468C233.719 80.3029 234.895 73.9914 238.068 68.6347C239.976 65.3532 242.593 62.5409 245.724 60.4035C247.282 59.359 248.967 58.5206 250.739 57.9091C252.555 57.2952 254.473 57.0389 256.385 57.1544C258.317 57.1922 260.228 57.5666 262.031 58.2609C263.382 58.7847 264.578 59.6428 265.509 60.7552C266.313 61.7601 266.831 62.9646 267.008 64.2408C267.189 65.6018 267.122 66.9844 266.81 68.3213C266.49 69.6214 265.972 70.8641 265.273 72.0052C264.463 73.3614 263.539 74.6452 262.511 75.8426C261.432 77.1068 260.27 78.297 259.033 79.405C257.908 80.4317 256.675 81.3341 255.358 82.0979C254.384 82.7019 253.3 83.1065 252.168 83.2873C251.237 83.4497 250.281 83.4085 249.368 83.1654C248.588 82.9652 247.908 82.4874 247.454 81.8229C246.988 81.0801 246.807 80.1943 246.943 79.3283C248.076 79.3284 249.185 78.9973 250.133 78.3753C251.161 77.7186 252.09 76.9198 252.895 76.0025C253.733 75.0594 254.499 74.0546 255.186 72.9966C255.875 71.9092 256.464 70.9158 256.953 70.0162Z" fill="white"/>
<path d="M365.495 51.9676C365.618 51.73 365.763 51.5051 365.929 51.296C366.112 51.0573 366.335 50.7269 366.6 50.3047C367.206 49.2884 367.637 48.1771 367.875 47.0174C368.113 45.8858 368.233 44.7328 368.233 43.5765C368.238 42.4231 368.159 41.2711 367.997 40.1292C367.849 39.1725 367.77 38.2064 367.76 37.2384C367.76 35.4944 368.628 34.6226 370.363 34.6226C372.363 34.6226 373.824 35.164 374.747 36.247C375.733 37.5226 376.224 39.113 376.131 40.724C376.082 43.6977 375.249 46.6056 373.72 49.1535C372.994 50.3549 372.042 51.404 370.919 52.2426C369.876 53.0401 368.6 53.4716 367.289 53.4706H366.58C366.365 53.4721 366.151 53.4463 365.942 53.3939C364.96 53.2318 364.811 52.7564 365.495 51.9676Z" fill="white"/>
<path d="M404.075 97.6775C403.396 97.108 402.567 96.7488 401.689 96.6411C400.257 96.3484 398.808 96.1457 397.351 96.0338C395.65 95.8891 393.825 95.8168 391.877 95.8168C389.929 95.8168 387.995 95.8631 386.077 95.9573C384.181 96.0506 382.39 96.2046 380.705 96.4174C379.305 96.5797 377.915 96.8296 376.546 97.166C375.774 97.4083 374.99 97.611 374.198 97.7734C373.427 97.9382 372.633 97.9753 371.85 97.8819C370.948 97.7885 370.546 96.9801 370.644 95.4585C370.71 93.6617 371.083 91.8893 371.748 90.2204C372.453 88.417 373.307 86.6757 374.3 85.0144C375.283 83.3455 376.401 81.7599 377.643 80.2749C378.744 78.9357 379.958 77.6945 381.273 76.5654C382.885 75.2351 384.557 73.9283 386.288 72.6449C388.019 71.3615 389.737 70.0823 391.443 68.8074C393.144 67.5283 394.78 66.1852 396.349 64.7782C397.931 63.3578 399.405 61.8207 400.757 60.1797C401.789 58.8935 402.605 57.4487 403.176 55.901C403.797 54.3802 404.157 52.7648 404.241 51.1234C404.352 49.8641 403.998 48.6079 403.246 47.593C402.535 46.7146 401.278 46.4886 399.475 46.915C398.049 47.1681 396.706 47.7676 395.564 48.661C394.801 49.3483 394.154 50.1563 393.65 51.053C393.179 51.9058 392.727 52.7969 392.297 53.7264C391.782 54.7597 391.025 55.6527 390.091 56.3295C389.866 56.5023 389.588 56.5907 389.306 56.5789C388.913 56.6025 388.519 56.5789 388.131 56.5086C387.71 56.4301 387.303 56.2855 386.925 56.0801C386.516 55.8616 386.18 55.5253 385.962 55.1143C385.406 54.16 385.1 53.0792 385.076 51.974C385.047 50.9054 385.215 49.8407 385.574 48.8337C385.922 47.8515 386.414 46.9268 387.035 46.09C387.566 45.3253 388.242 44.6732 389.025 44.1713C390.615 43.1877 392.31 42.3854 394.078 41.7793C396.035 41.0884 398.064 40.6228 400.126 40.3914C402.17 40.1549 404.235 40.1678 406.276 40.4298C408.174 40.6511 410.004 41.2699 411.648 42.2461C413.695 43.5626 415.149 45.6277 415.699 48.0023C416.219 49.8679 416.258 51.835 415.814 53.72C415.378 55.624 414.685 57.4594 413.754 59.1756C412.808 60.931 411.662 62.5707 410.34 64.0618C409.115 65.4569 407.809 66.7788 406.43 68.0207C404.771 69.4449 403.087 70.7752 401.377 72.0117C399.667 73.2482 397.966 74.4847 396.272 75.7212C394.571 76.9577 392.913 78.2369 391.296 79.5586C389.63 80.8951 388.052 82.3369 386.569 83.8754C385.858 84.5879 385.254 85.2272 384.756 85.7942C384.361 86.1609 384.098 86.6496 384.01 87.1821C384.01 87.5404 384.331 87.7768 384.974 87.8921C386.075 88.0023 387.186 87.9652 388.278 87.7835C389.797 87.596 391.385 87.453 393.044 87.3545C394.703 87.257 396.279 87.2208 397.772 87.246C399.265 87.2721 400.592 87.3419 401.753 87.4572C402.634 87.4992 403.499 87.7053 404.305 88.0645C404.69 88.1453 405.048 88.3261 405.341 88.5886C405.634 88.851 405.853 89.1866 405.977 89.5618C406.339 90.4661 406.496 91.441 406.436 92.4142C406.386 93.4666 406.157 94.502 405.759 95.4778C405.435 96.3652 404.847 97.1332 404.075 97.6775Z" fill="white"/>
<path d="M119.654 125.34C119.654 124.801 119.464 124.385 119.084 124.094C118.708 123.802 118.028 123.507 117.042 123.209C116.057 122.913 115.273 122.581 114.691 122.216C113.577 121.514 113.02 120.6 113.02 119.471C113.02 118.484 113.42 117.669 114.22 117.03C115.027 116.39 116.071 116.07 117.354 116.07C118.204 116.07 118.963 116.228 119.629 116.541C120.296 116.856 120.819 117.305 121.2 117.889C121.581 118.467 121.771 119.11 121.771 119.817H119.654C119.654 119.177 119.453 118.677 119.05 118.318C118.653 117.953 118.081 117.771 117.337 117.771C116.642 117.771 116.102 117.919 115.716 118.217C115.335 118.515 115.144 118.93 115.144 119.463C115.144 119.912 115.352 120.288 115.766 120.592C116.181 120.889 116.864 121.181 117.815 121.467C118.768 121.747 119.531 122.071 120.108 122.436C120.685 122.795 121.108 123.209 121.376 123.681C121.645 124.147 121.779 124.694 121.779 125.323C121.779 126.345 121.387 127.159 120.604 127.764C119.826 128.365 118.768 128.665 117.429 128.665C116.544 128.665 115.73 128.503 114.985 128.177C114.246 127.846 113.669 127.391 113.255 126.813C112.846 126.235 112.642 125.561 112.642 124.793H114.767C114.767 125.488 114.997 126.027 115.456 126.409C115.915 126.791 116.572 126.981 117.429 126.981C118.168 126.981 118.722 126.833 119.092 126.535C119.467 126.233 119.654 125.834 119.654 125.34ZM133.167 124.035C133.167 125.444 132.847 126.569 132.209 127.411C131.571 128.247 130.714 128.665 129.639 128.665C128.642 128.665 127.844 128.337 127.245 127.68V132H125.204V119.387H127.086L127.17 120.313C127.769 119.584 128.583 119.219 129.614 119.219C130.722 119.219 131.59 119.634 132.218 120.465C132.85 121.29 133.167 122.438 133.167 123.908V124.035ZM131.134 123.858C131.134 122.949 130.952 122.228 130.588 121.694C130.23 121.161 129.715 120.895 129.042 120.895C128.208 120.895 127.609 121.239 127.245 121.93V125.971C127.615 126.678 128.219 127.032 129.059 127.032C129.709 127.032 130.216 126.771 130.58 126.249C130.949 125.721 131.134 124.925 131.134 123.858ZM141.421 121.256C141.152 121.212 140.875 121.189 140.589 121.189C139.654 121.189 139.025 121.548 138.7 122.266V128.497H136.659V119.387H138.607L138.658 120.406C139.15 119.615 139.833 119.219 140.707 119.219C140.998 119.219 141.239 119.258 141.429 119.337L141.421 121.256ZM148.306 128.665C147.013 128.665 145.963 128.258 145.157 127.445C144.356 126.625 143.955 125.536 143.955 124.178V123.925C143.955 123.016 144.129 122.205 144.476 121.493C144.829 120.773 145.322 120.216 145.955 119.817C146.587 119.418 147.292 119.219 148.071 119.219C149.308 119.219 150.263 119.615 150.935 120.406C151.612 121.197 151.951 122.317 151.951 123.765V124.591H146.013C146.075 125.343 146.324 125.937 146.76 126.376C147.203 126.813 147.757 127.032 148.423 127.032C149.359 127.032 150.12 126.653 150.708 125.895L151.808 126.948C151.444 127.493 150.958 127.916 150.347 128.22C149.742 128.516 149.062 128.665 148.306 128.665ZM148.063 120.861C147.503 120.861 147.049 121.057 146.702 121.45C146.36 121.843 146.142 122.39 146.047 123.092H149.935V122.94C149.89 122.256 149.709 121.739 149.389 121.391C149.07 121.038 148.628 120.861 148.063 120.861ZM160.734 128.497C160.645 128.323 160.566 128.039 160.499 127.647C159.85 128.326 159.055 128.665 158.114 128.665C157.201 128.665 156.457 128.405 155.88 127.882C155.303 127.361 155.015 126.715 155.015 125.946C155.015 124.975 155.373 124.231 156.09 123.715C156.812 123.193 157.842 122.932 159.181 122.932H160.432V122.334C160.432 121.863 160.3 121.487 160.038 121.206C159.774 120.92 159.374 120.777 158.836 120.777C158.372 120.777 157.991 120.895 157.694 121.13C157.398 121.361 157.249 121.655 157.249 122.014H155.208C155.208 121.514 155.373 121.048 155.704 120.617C156.034 120.179 156.482 119.836 157.048 119.59C157.618 119.343 158.254 119.219 158.954 119.219C160.017 119.219 160.866 119.488 161.498 120.027C162.131 120.561 162.456 121.313 162.473 122.283V126.392C162.473 127.212 162.588 127.865 162.817 128.354V128.497H160.734ZM158.492 127.023C158.895 127.023 159.273 126.926 159.626 126.729C159.984 126.533 160.253 126.269 160.432 125.937V124.22H159.332C158.576 124.22 158.008 124.352 157.627 124.616C157.246 124.879 157.056 125.253 157.056 125.736C157.056 126.128 157.185 126.443 157.442 126.678C157.706 126.909 158.056 127.023 158.492 127.023ZM165.99 123.875C165.99 122.472 166.315 121.346 166.964 120.498C167.614 119.645 168.485 119.219 169.577 119.219C170.54 119.219 171.318 119.555 171.912 120.229V115.565H173.952V128.497H172.105L172.004 127.554C171.393 128.295 170.578 128.665 169.56 128.665C168.496 128.665 167.634 128.236 166.973 127.378C166.318 126.519 165.99 125.351 165.99 123.875ZM168.031 124.051C168.031 124.978 168.208 125.702 168.56 126.224C168.919 126.74 169.425 126.998 170.081 126.998C170.915 126.998 171.525 126.625 171.912 125.879V121.989C171.536 121.26 170.932 120.895 170.098 120.895C169.436 120.895 168.927 121.159 168.569 121.686C168.21 122.208 168.031 122.997 168.031 124.051ZM185.901 120.381C186.567 119.607 187.409 119.219 188.428 119.219C190.365 119.219 191.348 120.328 191.377 122.545V128.497H189.335V122.621C189.335 121.991 189.198 121.548 188.924 121.29C188.655 121.027 188.258 120.895 187.732 120.895C186.913 120.895 186.303 121.26 185.901 121.989V128.497H183.86V115.565H185.901V120.381ZM200.639 128.497C200.549 128.323 200.47 128.039 200.403 127.647C199.753 128.326 198.959 128.665 198.018 128.665C197.105 128.665 196.361 128.405 195.784 127.882C195.207 127.361 194.919 126.715 194.919 125.946C194.919 124.975 195.277 124.231 195.994 123.715C196.716 123.193 197.746 122.932 199.085 122.932H200.336V122.334C200.336 121.863 200.204 121.487 199.941 121.206C199.678 120.92 199.278 120.777 198.741 120.777C198.276 120.777 197.895 120.895 197.598 121.13C197.302 121.361 197.153 121.655 197.153 122.014H195.112C195.112 121.514 195.277 121.048 195.607 120.617C195.938 120.179 196.386 119.836 196.952 119.59C197.522 119.343 198.158 119.219 198.858 119.219C199.921 119.219 200.77 119.488 201.402 120.027C202.035 120.561 202.36 121.313 202.377 122.283V126.392C202.377 127.212 202.491 127.865 202.721 128.354V128.497H200.639ZM198.396 127.023C198.799 127.023 199.177 126.926 199.529 126.729C199.888 126.533 200.157 126.269 200.336 125.937V124.22H199.236C198.48 124.22 197.912 124.352 197.531 124.616C197.15 124.879 196.96 125.253 196.96 125.736C196.96 126.128 197.088 126.443 197.346 126.678C197.61 126.909 197.959 127.023 198.396 127.023ZM214.234 124.035C214.234 125.444 213.915 126.569 213.277 127.411C212.638 128.247 211.782 128.665 210.706 128.665C209.71 128.665 208.912 128.337 208.313 127.68V132H206.273V119.387H208.154L208.238 120.313C208.837 119.584 209.652 119.219 210.681 119.219C211.79 119.219 212.658 119.634 213.285 120.465C213.918 121.29 214.234 122.438 214.234 123.908V124.035ZM212.202 123.858C212.202 122.949 212.02 122.228 211.655 121.694C211.297 121.161 210.782 120.895 210.111 120.895C209.277 120.895 208.677 121.239 208.313 121.93V125.971C208.682 126.678 209.287 127.032 210.127 127.032C210.777 127.032 211.284 126.771 211.647 126.249C212.017 125.721 212.202 124.925 212.202 123.858ZM225.689 124.035C225.689 125.444 225.369 126.569 224.73 127.411C224.093 128.247 223.236 128.665 222.161 128.665C221.164 128.665 220.366 128.337 219.767 127.68V132H217.726V119.387H219.608L219.692 120.313C220.291 119.584 221.105 119.219 222.136 119.219C223.244 119.219 224.112 119.634 224.74 120.465C225.372 121.29 225.689 122.438 225.689 123.908V124.035ZM223.656 123.858C223.656 122.949 223.473 122.228 223.11 121.694C222.752 121.161 222.237 120.895 221.564 120.895C220.73 120.895 220.131 121.239 219.767 121.93V125.971C220.137 126.678 220.741 127.032 221.581 127.032C222.231 127.032 222.738 126.771 223.102 126.249C223.471 125.721 223.656 124.925 223.656 123.858ZM231.356 128.497H229.315V119.387H231.356V128.497ZM229.189 117.022C229.189 116.707 229.287 116.446 229.483 116.239C229.685 116.031 229.97 115.927 230.34 115.927C230.709 115.927 230.994 116.031 231.197 116.239C231.398 116.446 231.499 116.707 231.499 117.022C231.499 117.33 231.398 117.589 231.197 117.796C230.994 117.998 230.709 118.099 230.34 118.099C229.97 118.099 229.685 117.998 229.483 117.796C229.287 117.589 229.189 117.33 229.189 117.022ZM237.242 119.387L237.3 120.439C237.972 119.626 238.854 119.219 239.946 119.219C241.838 119.219 242.801 120.305 242.835 122.478V128.497H240.794V122.595C240.794 122.017 240.668 121.59 240.416 121.315C240.17 121.035 239.764 120.895 239.198 120.895C238.375 120.895 237.763 121.268 237.359 122.014V128.497H235.318V119.387H237.242ZM250.687 128.665C249.393 128.665 248.343 128.258 247.537 127.445C246.736 126.625 246.336 125.536 246.336 124.178V123.925C246.336 123.016 246.51 122.205 246.856 121.493C247.209 120.773 247.702 120.216 248.335 119.817C248.967 119.418 249.673 119.219 250.451 119.219C251.689 119.219 252.643 119.615 253.315 120.406C253.993 121.197 254.331 122.317 254.331 123.765V124.591H248.393C248.455 125.343 248.704 125.937 249.141 126.376C249.583 126.813 250.138 127.032 250.804 127.032C251.739 127.032 252.5 126.653 253.088 125.895L254.188 126.948C253.825 127.493 253.337 127.916 252.727 128.22C252.122 128.516 251.442 128.665 250.687 128.665ZM250.442 120.861C249.883 120.861 249.43 121.057 249.082 121.45C248.741 121.843 248.523 122.39 248.427 123.092H252.315V122.94C252.271 122.256 252.089 121.739 251.77 121.391C251.45 121.038 251.008 120.861 250.442 120.861ZM262.779 126.022C262.779 125.657 262.627 125.379 262.325 125.188C262.028 124.998 261.533 124.829 260.839 124.683C260.144 124.537 259.564 124.352 259.1 124.127C258.081 123.633 257.572 122.918 257.572 121.98C257.572 121.195 257.902 120.538 258.563 120.01C259.223 119.483 260.063 119.219 261.082 119.219C262.168 119.219 263.045 119.488 263.711 120.027C264.383 120.566 264.719 121.265 264.719 122.123H262.678C262.678 121.731 262.532 121.405 262.241 121.147C261.95 120.884 261.564 120.752 261.082 120.752C260.634 120.752 260.268 120.855 259.982 121.063C259.702 121.271 259.562 121.548 259.562 121.896C259.562 122.211 259.694 122.455 259.957 122.629C260.22 122.803 260.752 122.98 261.552 123.159C262.353 123.333 262.98 123.543 263.434 123.791C263.893 124.032 264.232 124.324 264.45 124.666C264.674 125.009 264.786 125.424 264.786 125.912C264.786 126.731 264.447 127.397 263.77 127.907C263.092 128.413 262.205 128.665 261.108 128.665C260.362 128.665 259.7 128.531 259.117 128.262C258.535 127.992 258.081 127.621 257.756 127.15C257.431 126.678 257.269 126.17 257.269 125.626H259.251C259.279 126.109 259.461 126.482 259.797 126.746C260.133 127.004 260.578 127.134 261.133 127.134C261.67 127.134 262.079 127.032 262.359 126.83C262.639 126.622 262.779 126.353 262.779 126.022ZM273.427 126.022C273.427 125.657 273.276 125.379 272.973 125.188C272.676 124.998 272.18 124.829 271.486 124.683C270.793 124.537 270.213 124.352 269.748 124.127C268.729 123.633 268.22 122.918 268.22 121.98C268.22 121.195 268.55 120.538 269.211 120.01C269.871 119.483 270.711 119.219 271.73 119.219C272.817 119.219 273.693 119.488 274.359 120.027C275.031 120.566 275.367 121.265 275.367 122.123H273.326C273.326 121.731 273.18 121.405 272.889 121.147C272.598 120.884 272.212 120.752 271.73 120.752C271.282 120.752 270.915 120.855 270.63 121.063C270.35 121.271 270.21 121.548 270.21 121.896C270.21 122.211 270.341 122.455 270.605 122.629C270.868 122.803 271.4 122.98 272.201 123.159C273.001 123.333 273.628 123.543 274.082 123.791C274.541 124.032 274.88 124.324 275.098 124.666C275.322 125.009 275.434 125.424 275.434 125.912C275.434 126.731 275.096 127.397 274.418 127.907C273.74 128.413 272.853 128.665 271.755 128.665C271.011 128.665 270.347 128.531 269.765 128.262C269.182 127.992 268.729 127.621 268.404 127.15C268.08 126.678 267.917 126.17 267.917 125.626H269.899C269.927 126.109 270.11 126.482 270.445 126.746C270.781 127.004 271.226 127.134 271.78 127.134C272.318 127.134 272.727 127.032 273.007 126.83C273.286 126.622 273.427 126.353 273.427 126.022ZM280.253 126.342C280.634 126.342 280.928 126.451 281.135 126.67C281.342 126.884 281.446 127.153 281.446 127.478C281.446 127.798 281.342 128.065 281.135 128.278C280.928 128.486 280.634 128.59 280.253 128.59C279.889 128.59 279.601 128.486 279.388 128.278C279.175 128.071 279.069 127.804 279.069 127.478C279.069 127.153 279.173 126.884 279.38 126.67C279.586 126.451 279.878 126.342 280.253 126.342ZM301.121 124.507C300.997 125.814 300.516 126.836 299.676 127.571C298.836 128.3 297.719 128.665 296.325 128.665C295.351 128.665 294.492 128.436 293.746 127.975C293.007 127.51 292.437 126.85 292.033 125.996C291.63 125.143 291.42 124.152 291.404 123.024V121.88C291.404 120.723 291.608 119.704 292.016 118.824C292.425 117.942 293.011 117.263 293.772 116.786C294.539 116.308 295.424 116.07 296.426 116.07C297.775 116.07 298.862 116.438 299.684 117.173C300.507 117.908 300.986 118.946 301.121 120.288H299.004C298.904 119.407 298.646 118.773 298.232 118.385C297.823 117.992 297.22 117.796 296.426 117.796C295.502 117.796 294.791 118.135 294.293 118.815C293.8 119.488 293.548 120.479 293.537 121.787V122.873C293.537 124.198 293.772 125.208 294.242 125.904C294.718 126.6 295.412 126.948 296.325 126.948C297.159 126.948 297.786 126.76 298.206 126.384C298.626 126.008 298.892 125.382 299.004 124.507H301.121ZM308.594 128.665C307.301 128.665 306.251 128.258 305.444 127.445C304.644 126.625 304.243 125.536 304.243 124.178V123.925C304.243 123.016 304.417 122.205 304.764 121.493C305.116 120.773 305.61 120.216 306.242 119.817C306.875 119.418 307.58 119.219 308.359 119.219C309.596 119.219 310.55 119.615 311.223 120.406C311.9 121.197 312.239 122.317 312.239 123.765V124.591H306.301C306.362 125.343 306.612 125.937 307.048 126.376C307.491 126.813 308.045 127.032 308.711 127.032C309.647 127.032 310.408 126.653 310.996 125.895L312.096 126.948C311.732 127.493 311.245 127.916 310.634 128.22C310.03 128.516 309.35 128.665 308.594 128.665ZM308.35 120.861C307.791 120.861 307.337 121.057 306.989 121.45C306.648 121.843 306.43 122.39 306.335 123.092H310.223V122.94C310.178 122.256 309.997 121.739 309.677 121.391C309.358 121.038 308.916 120.861 308.35 120.861ZM317.763 128.497H315.723V115.565H317.763V128.497ZM325.758 128.665C324.464 128.665 323.414 128.258 322.608 127.445C321.807 126.625 321.407 125.536 321.407 124.178V123.925C321.407 123.016 321.581 122.205 321.928 121.493C322.28 120.773 322.773 120.216 323.406 119.817C324.038 119.418 324.744 119.219 325.522 119.219C326.76 119.219 327.714 119.615 328.386 120.406C329.064 121.197 329.403 122.317 329.403 123.765V124.591H323.464C323.526 125.343 323.776 125.937 324.212 126.376C324.654 126.813 325.209 127.032 325.875 127.032C326.81 127.032 327.572 126.653 328.159 125.895L329.259 126.948C328.896 127.493 328.408 127.916 327.798 128.22C327.193 128.516 326.513 128.665 325.758 128.665ZM325.514 120.861C324.954 120.861 324.501 121.057 324.153 121.45C323.812 121.843 323.594 122.39 323.498 123.092H327.386V122.94C327.342 122.256 327.16 121.739 326.841 121.391C326.521 121.038 326.079 120.861 325.514 120.861ZM340.731 124.035C340.731 125.45 340.414 126.575 339.782 127.411C339.154 128.247 338.289 128.665 337.186 128.665C336.122 128.665 335.294 128.281 334.7 127.512L334.599 128.497H332.752V115.565H334.792V120.263C335.381 119.567 336.173 119.219 337.17 119.219C338.278 119.219 339.149 119.632 339.782 120.456C340.414 121.281 340.731 122.436 340.731 123.917V124.035ZM338.69 123.858C338.69 122.87 338.516 122.129 338.169 121.636C337.822 121.142 337.318 120.895 336.657 120.895C335.772 120.895 335.151 121.281 334.792 122.056V125.811C335.157 126.603 335.783 126.998 336.674 126.998C337.312 126.998 337.805 126.76 338.152 126.283C338.5 125.805 338.678 125.084 338.69 124.119V123.858ZM348.968 121.256C348.699 121.212 348.422 121.189 348.137 121.189C347.201 121.189 346.572 121.548 346.247 122.266V128.497H344.206V119.387H346.155L346.205 120.406C346.698 119.615 347.381 119.219 348.254 119.219C348.545 119.219 348.786 119.258 348.977 119.337L348.968 121.256ZM357.197 128.497C357.108 128.323 357.029 128.039 356.962 127.647C356.312 128.326 355.518 128.665 354.577 128.665C353.664 128.665 352.92 128.405 352.342 127.882C351.766 127.361 351.477 126.715 351.477 125.946C351.477 124.975 351.836 124.231 352.553 123.715C353.275 123.193 354.305 122.932 355.643 122.932H356.895V122.334C356.895 121.863 356.763 121.487 356.5 121.206C356.237 120.92 355.836 120.777 355.299 120.777C354.835 120.777 354.454 120.895 354.157 121.13C353.86 121.361 353.712 121.655 353.712 122.014H351.671C351.671 121.514 351.836 121.048 352.166 120.617C352.497 120.179 352.945 119.836 353.51 119.59C354.081 119.343 354.717 119.219 355.417 119.219C356.48 119.219 357.328 119.488 357.961 120.027C358.594 120.561 358.918 121.313 358.935 122.283V126.392C358.935 127.212 359.05 127.865 359.28 128.354V128.497H357.197ZM354.954 127.023C355.358 127.023 355.736 126.926 356.088 126.729C356.446 126.533 356.716 126.269 356.895 125.937V124.22H355.794C355.038 124.22 354.47 124.352 354.089 124.616C353.708 124.879 353.519 125.253 353.519 125.736C353.519 126.128 353.647 126.443 353.905 126.678C354.168 126.909 354.518 127.023 354.954 127.023ZM365.392 117.173V119.387H366.997V120.903H365.392V125.988C365.392 126.336 365.459 126.588 365.594 126.746C365.734 126.897 365.98 126.973 366.333 126.973C366.569 126.973 366.806 126.945 367.047 126.889V128.472C366.582 128.601 366.135 128.665 365.704 128.665C364.135 128.665 363.351 127.798 363.351 126.064V120.903H361.857V119.387H363.351V117.173H365.392ZM374.327 128.665C373.034 128.665 371.984 128.258 371.178 127.445C370.377 126.625 369.976 125.536 369.976 124.178V123.925C369.976 123.016 370.15 122.205 370.497 121.493C370.85 120.773 371.343 120.216 371.976 119.817C372.609 119.418 373.313 119.219 374.092 119.219C375.329 119.219 376.284 119.615 376.956 120.406C377.633 121.197 377.972 122.317 377.972 123.765V124.591H372.035C372.096 125.343 372.345 125.937 372.781 126.376C373.224 126.813 373.778 127.032 374.445 127.032C375.38 127.032 376.141 126.653 376.729 125.895L377.829 126.948C377.465 127.493 376.979 127.916 376.368 128.22C375.764 128.516 375.083 128.665 374.327 128.665ZM374.084 120.861C373.524 120.861 373.07 121.057 372.723 121.45C372.381 121.843 372.163 122.39 372.068 123.092H375.957V122.94C375.911 122.256 375.73 121.739 375.41 121.391C375.091 121.038 374.649 120.861 374.084 120.861ZM387.913 128.497V120.903H386.527V119.387H387.913V118.765C387.918 118.051 388.07 117.44 388.366 116.929C388.663 116.418 389.083 116.033 389.627 115.775C390.169 115.518 390.821 115.388 391.583 115.388C392.031 115.388 392.459 115.436 392.868 115.531C393.283 115.627 393.711 115.747 394.153 115.894L393.842 117.585C393.069 117.316 392.365 117.182 391.726 117.182C391.104 117.182 390.654 117.319 390.373 117.594C390.094 117.864 389.954 118.27 389.954 118.815V119.387H391.743V120.903H389.954V128.497H387.913ZM395.119 128.497H393.078V119.387H395.119V128.497ZM401.702 117.173V119.387H403.306V120.903H401.702V125.988C401.702 126.336 401.769 126.588 401.904 126.746C402.044 126.897 402.29 126.973 402.643 126.973C402.878 126.973 403.116 126.945 403.356 126.889V128.472C402.892 128.601 402.444 128.665 402.013 128.665C400.445 128.665 399.661 127.798 399.661 126.064V120.903H398.166V119.387H399.661V117.173H401.702ZM408.528 119.387L408.587 120.439C409.259 119.626 410.141 119.219 411.233 119.219C413.125 119.219 414.088 120.305 414.122 122.478V128.497H412.081V122.595C412.081 122.017 411.955 121.59 411.703 121.315C411.457 121.035 411.051 120.895 410.485 120.895C409.662 120.895 409.049 121.268 408.646 122.014V128.497H406.605V119.387H408.528ZM421.973 128.665C420.68 128.665 419.63 128.258 418.823 127.445C418.023 126.625 417.623 125.536 417.623 124.178V123.925C417.623 123.016 417.796 122.205 418.143 121.493C418.496 120.773 418.989 120.216 419.621 119.817C420.254 119.418 420.96 119.219 421.738 119.219C422.975 119.219 423.93 119.615 424.602 120.406C425.28 121.197 425.618 122.317 425.618 123.765V124.591H419.68C419.741 125.343 419.991 125.937 420.428 126.376C420.87 126.813 421.425 127.032 422.091 127.032C423.026 127.032 423.787 126.653 424.375 125.895L425.475 126.948C425.112 127.493 424.624 127.916 424.014 128.22C423.409 128.516 422.729 128.665 421.973 128.665ZM421.729 120.861C421.17 120.861 420.716 121.057 420.369 121.45C420.028 121.843 419.809 122.39 419.714 123.092H423.602V122.94C423.558 122.256 423.376 121.739 423.057 121.391C422.737 121.038 422.295 120.861 421.729 120.861ZM434.066 126.022C434.066 125.657 433.914 125.379 433.612 125.188C433.315 124.998 432.82 124.829 432.125 124.683C431.431 124.537 430.851 124.352 430.387 124.127C429.368 123.633 428.858 122.918 428.858 121.98C428.858 121.195 429.189 120.538 429.849 120.01C430.51 119.483 431.35 119.219 432.369 119.219C433.455 119.219 434.331 119.488 434.998 120.027C435.669 120.566 436.006 121.265 436.006 122.123H433.964C433.964 121.731 433.819 121.405 433.528 121.147C433.237 120.884 432.851 120.752 432.369 120.752C431.921 120.752 431.554 120.855 431.269 121.063C430.989 121.271 430.849 121.548 430.849 121.896C430.849 122.211 430.98 122.455 431.244 122.629C431.507 122.803 432.039 122.98 432.839 123.159C433.64 123.333 434.267 123.543 434.72 123.791C435.179 124.032 435.518 124.324 435.736 124.666C435.961 125.009 436.073 125.424 436.073 125.912C436.073 126.731 435.734 127.397 435.057 127.907C434.379 128.413 433.492 128.665 432.394 128.665C431.649 128.665 430.986 128.531 430.404 128.262C429.822 127.992 429.368 127.621 429.043 127.15C428.718 126.678 428.556 126.17 428.556 125.626H430.538C430.566 126.109 430.748 126.482 431.084 126.746C431.42 127.004 431.865 127.134 432.419 127.134C432.957 127.134 433.365 127.032 433.645 126.83C433.926 126.622 434.066 126.353 434.066 126.022ZM444.713 126.022C444.713 125.657 444.562 125.379 444.26 125.188C443.963 124.998 443.467 124.829 442.773 124.683C442.079 124.537 441.5 124.352 441.035 124.127C440.016 123.633 439.506 122.918 439.506 121.98C439.506 121.195 439.836 120.538 440.498 120.01C441.158 119.483 441.998 119.219 443.017 119.219C444.103 119.219 444.979 119.488 445.646 120.027C446.318 120.566 446.653 121.265 446.653 122.123H444.613C444.613 121.731 444.467 121.405 444.175 121.147C443.884 120.884 443.498 120.752 443.017 120.752C442.569 120.752 442.202 120.855 441.917 121.063C441.636 121.271 441.497 121.548 441.497 121.896C441.497 122.211 441.628 122.455 441.891 122.629C442.155 122.803 442.687 122.98 443.487 123.159C444.288 123.333 444.915 123.543 445.369 123.791C445.828 124.032 446.167 124.324 446.385 124.666C446.609 125.009 446.72 125.424 446.72 125.912C446.72 126.731 446.381 127.397 445.704 127.907C445.027 128.413 444.139 128.665 443.042 128.665C442.298 128.665 441.634 128.531 441.051 128.262C440.469 127.992 440.016 127.621 439.691 127.15C439.367 126.678 439.204 126.17 439.204 125.626H441.186C441.214 126.109 441.395 126.482 441.732 126.746C442.068 127.004 442.513 127.134 443.067 127.134C443.605 127.134 444.013 127.032 444.294 126.83C444.573 126.622 444.713 126.353 444.713 126.022ZM451.539 126.342C451.92 126.342 452.214 126.451 452.421 126.67C452.629 126.884 452.733 127.153 452.733 127.478C452.733 127.798 452.629 128.065 452.421 128.278C452.214 128.486 451.92 128.59 451.539 128.59C451.176 128.59 450.887 128.486 450.675 128.278C450.462 128.071 450.355 127.804 450.355 127.478C450.355 127.153 450.46 126.884 450.666 126.67C450.873 126.451 451.164 126.342 451.539 126.342Z" fill="white"/>
<path d="M282.282 92.8997C283.432 92.7827 284.541 92.4042 285.522 91.7935C286.368 91.2686 287.063 90.5326 287.539 89.6578C287.996 88.7787 288.216 87.7954 288.176 86.8053C288.129 85.6664 287.819 84.5543 287.271 83.5559C286.663 82.6381 285.989 81.7667 285.255 80.9465C284.545 80.1535 283.821 79.3882 283.086 78.6505C282.35 77.9128 281.626 77.1219 280.916 76.2776C280.169 75.3826 279.495 74.4287 278.9 73.4252C278.235 72.0833 277.883 70.6068 277.873 69.1081C277.87 67.6684 278.152 66.2426 278.703 64.9126C279.254 63.569 280.043 62.3361 281.031 61.2734C282.036 60.1941 283.243 59.3246 284.585 58.7151C286.418 57.791 288.419 57.2513 290.467 57.129C292.504 56.9569 294.554 57.1739 296.509 57.7685C297.657 58.2549 298.731 58.9008 299.699 59.6873C300.138 60.0539 300.456 60.5453 300.611 61.0968C300.766 61.6483 300.75 62.2339 300.567 62.7764C300.509 63.198 300.353 63.6002 300.113 63.9509C299.873 64.3018 299.554 64.5917 299.182 64.7974C298.523 65.0874 297.719 64.8358 296.771 64.0427C295.885 63.1168 294.69 62.5519 293.415 62.4566C292.348 62.3718 291.287 62.6662 290.416 63.288C290.012 63.5918 289.673 63.9754 289.422 64.4154C289.17 64.8555 289.011 65.3424 288.955 65.8463C288.797 66.9549 289.245 68.1679 290.295 69.4855C291.108 70.5582 292.02 71.5518 293.019 72.4531C293.908 73.246 294.739 74.1009 295.508 75.0113C296.267 75.9188 296.892 76.9312 297.364 78.0173C297.919 79.4177 298.226 80.9045 298.27 82.411C298.309 84.7301 297.875 87.0333 296.994 89.1774C296.15 91.1778 294.852 92.9543 293.204 94.365C291.434 95.8614 289.359 96.9533 287.124 97.5623C284.515 98.2664 281.803 98.5069 279.111 98.2723C277.667 98.2024 276.266 97.7617 275.04 96.9937C273.9 96.2669 272.887 95.3576 272.042 94.3011C271.252 93.3017 270.607 92.1947 270.128 91.0137C269.692 89.9925 269.4 88.9167 269.26 87.8156C269.036 86.1063 269.281 84.3684 269.969 82.7887C270.569 81.3478 271.487 80.0622 272.655 79.0278C273.634 78.1414 274.836 77.54 276.131 77.2882C276.69 77.1728 277.269 77.2073 277.81 77.3882C278.351 77.5689 278.835 77.8897 279.213 78.3179C279.424 78.5879 279.523 78.9295 279.487 79.2709C279.455 79.6643 279.362 80.0505 279.213 80.4156C279.054 80.8094 278.869 81.1921 278.658 81.5606C278.491 81.8617 278.305 82.1519 278.103 82.4304C277.5 83.3582 277.197 84.4509 277.235 85.5579C277.233 86.7742 277.448 87.9813 277.873 89.1202C278.256 90.197 278.877 91.1719 279.691 91.9727C280.029 92.3083 280.436 92.5657 280.884 92.7264C281.331 92.8862 281.808 92.9459 282.282 92.8997Z" fill="white"/>
<path d="M309.53 61.3949C309.769 61.0224 310.096 60.7153 310.482 60.501C310.869 60.2867 311.303 60.1718 311.745 60.1669C312.883 60.0374 314.035 60.1309 315.139 60.4419C316.232 60.727 317.253 61.239 318.137 61.9449C318.532 62.2341 318.842 62.6237 319.036 63.0735C319.23 63.5233 319.301 64.0169 319.241 64.5031C319.098 66.0236 318.795 67.5245 318.335 68.9801C317.782 70.9074 317.144 72.9391 316.421 75.0752C315.698 77.2114 314.947 79.322 314.169 81.4066C313.403 83.4919 312.784 85.2466 312.312 86.6707C311.207 91.1559 312.522 91.9474 316.261 89.0437C318.32 87.5287 320.272 85.8749 322.105 84.0933C323.697 82.5279 325.2 80.875 326.609 79.1429C327.137 78.6654 327.563 78.5459 327.886 78.7847C328.209 79.0235 328.168 79.5117 327.765 80.2494C325.639 83.2925 323.345 86.2131 320.893 88.9982C318.592 91.6008 315.996 93.9275 313.161 95.9312C311.459 97.1467 309.998 97.786 308.777 97.85C307.66 97.9652 306.54 97.6397 305.658 96.9423C304.736 96.1407 304.052 95.101 303.68 93.936C303.183 92.5034 302.866 91.0145 302.736 89.5038C302.526 87.1628 302.539 84.8075 302.774 82.469C303.017 79.9213 303.444 77.3948 304.05 74.9089C304.646 72.4267 305.425 69.9919 306.378 67.6242C307.23 65.4525 308.286 63.3667 309.53 61.3949Z" fill="white"/>
<path d="M355.332 69.1464C354.962 66.878 354.001 65.5179 352.449 65.0659C350.896 64.6139 349.105 64.9828 347.077 66.1724C344.642 67.7169 342.484 69.663 340.696 71.9285C338.308 74.858 336.34 78.1089 334.853 81.5857C334.693 81.8734 334.616 82.1989 334.629 82.527C334.643 82.8559 334.746 83.1738 334.929 83.4472C335.295 83.9502 335.769 83.9099 336.352 83.3253C337.853 81.065 339.53 78.9262 341.367 76.9299C343.491 74.6511 345.745 72.4965 348.116 70.4767C348.706 69.9679 349.436 69.6511 350.209 69.5685C350.943 69.4858 351.688 69.5801 352.378 69.8435C353.053 70.1016 353.661 70.5081 354.158 71.0331C354.642 71.5315 354.959 72.1686 355.064 72.8559C355.046 74.0577 354.887 75.2533 354.592 76.4183C354.277 77.74 353.91 79.113 353.489 80.5371C353.067 81.9609 352.659 83.4127 352.263 84.8924C351.868 86.372 351.551 87.7709 351.313 89.0882C351.083 90.302 351.003 91.5394 351.077 92.7717C351.122 93.8105 351.465 94.8149 352.065 95.6628C351.781 96.467 351.201 97.1323 350.445 97.5243C349.747 97.8659 348.959 97.9786 348.193 97.844C347.315 97.6724 346.49 97.293 345.788 96.737C344.931 96.0851 344.219 95.2616 343.695 94.3195C343.138 92.807 342.818 91.2172 342.745 89.6063C342.657 87.5757 342.816 85.5418 343.217 83.5499C343.36 83.0207 343.402 82.4689 343.338 81.9247C343.257 81.7413 343.125 81.7413 342.943 81.9247C342.692 82.1998 342.478 82.5043 342.304 82.8332C342.067 83.2596 341.869 83.6281 341.711 83.9393C341.184 84.7923 340.591 85.7024 339.931 86.6706C339.263 87.6624 338.539 88.6146 337.762 89.5231C337.006 90.4139 336.173 91.2357 335.274 91.9793C334.512 92.6278 333.65 93.1485 332.721 93.5203C331.964 93.8114 331.156 93.9401 330.346 93.8997C329.536 93.8585 328.744 93.649 328.02 93.284C326.478 92.5042 325.221 91.2576 324.428 89.7216C323.328 87.7431 322.821 85.4896 322.967 83.2294C323.109 80.8572 323.614 78.521 324.466 76.3031C325.328 74.0224 326.441 71.8451 327.783 69.8115C328.976 67.96 330.367 66.2443 331.931 64.6949C333.717 62.8912 335.737 61.334 337.934 60.0645C339.967 58.8642 342.179 58.0004 344.487 57.5062C346.609 57.0585 348.801 57.0585 350.923 57.5062C353.023 57.9665 354.968 58.9622 356.57 60.3971C357.311 61.267 357.898 62.2578 358.305 63.3263C358.658 64.2037 358.782 65.1571 358.662 66.0957C358.557 66.8881 358.196 67.6244 357.635 68.1934C357.015 68.7906 356.192 69.131 355.332 69.1464Z" fill="white"/>
<path d="M49.7829 130.213C77.2772 130.213 99.5662 107.869 99.5662 80.3069C99.5662 52.7449 77.2772 30.4014 49.7829 30.4014C22.2885 30.4014 0 52.7449 0 80.3069C0 107.869 22.2885 130.213 49.7829 130.213Z" fill="#F4DC00"/>
<path d="M83.2649 69.1082H78.1609C78.1576 66.1289 76.9755 63.2726 74.8741 61.1659C72.7726 59.0593 69.9233 57.8743 66.9514 57.8709V52.7544C71.278 52.7544 75.4275 54.4774 78.4869 57.5443C81.5462 60.6113 83.2649 64.7709 83.2649 69.1082Z" fill="white"/>
<path d="M36.7996 94.6079C35.5963 94.6079 34.4414 94.1326 33.5851 93.2847C32.7289 92.4368 32.2403 91.2853 32.2252 90.079V57.9219H23.0763V89.152C23.0763 93.0299 24.6129 96.7487 27.348 99.4901C30.0832 102.232 33.7928 103.773 37.6609 103.773H41.3805V94.6079H36.7996Z" fill="white"/>
<path d="M59.9653 67.1509V80.9018C59.9653 82.1181 59.4834 83.284 58.6255 84.1445C57.7676 85.0042 56.6041 85.487 55.3908 85.487C54.1777 85.487 53.0141 85.0042 52.1562 84.1445C51.2984 83.284 50.8164 82.1181 50.8164 80.9018V67.1509H41.6229V80.9018C41.6189 83.1082 42.1447 85.2835 43.156 87.2434C44.1673 89.2042 45.6343 90.8916 47.4331 92.1635C49.232 93.4353 51.3098 94.2546 53.491 94.5516C55.6723 94.8494 57.8929 94.6163 59.9653 93.8719V99.2512C59.9502 100.457 59.4616 101.609 58.6054 102.456C57.7491 103.304 56.5942 103.779 55.3908 103.779H50.8101V112.951H54.5296C58.3976 112.951 62.1073 111.41 64.8424 108.668C67.5776 105.926 69.1142 102.207 69.1142 98.3301V67.1509H59.9653Z" fill="white"/>
<path d="M319.834 9.29561C315.03 21.2492 331.318 39.899 316.644 52.5369C316.451 52.7017 316.208 52.7951 315.954 52.8013C315.701 52.8075 315.453 52.7261 315.253 52.5708C315.052 52.4156 314.911 52.1958 314.853 51.9485C314.795 51.7013 314.824 51.4416 314.934 51.2129C321.398 37.3791 293.562 22.8097 318.258 7.93972C318.456 7.82751 318.683 7.77905 318.909 7.80109C319.135 7.82313 319.349 7.91448 319.521 8.06278C319.693 8.211 319.816 8.40901 319.872 8.62965C319.928 8.85029 319.915 9.0828 319.834 9.29561Z" fill="#00B13C"/>
<path d="M303.253 24.997C294.653 36.0168 309.735 42.3549 309.537 51.5967C309.528 51.8427 309.601 52.0848 309.745 52.2844C309.888 52.4841 310.095 52.63 310.331 52.699C310.566 52.768 310.818 52.7562 311.046 52.6654C311.275 52.5746 311.467 52.4101 311.591 52.1979C316.191 43.8835 305.428 34.533 305.211 25.6813C305.212 25.4525 305.142 25.2293 305.009 25.0426C304.877 24.856 304.691 24.7152 304.475 24.6399C304.26 24.5646 304.026 24.5585 303.806 24.6226C303.588 24.6866 303.394 24.8175 303.253 24.997Z" fill="#EA1C24"/>
<path d="M323.305 19.8231C324.128 30.0946 333.015 40.2061 321.602 52.1597C321.447 52.3183 321.356 52.5278 321.344 52.749C321.332 52.9701 321.401 53.1882 321.537 53.3625C321.674 53.5367 321.868 53.6554 322.086 53.6965C322.303 53.7376 322.527 53.6983 322.718 53.5859C345.367 40.155 329.519 31.5272 325.072 19.4777C324.997 19.2744 324.852 19.1046 324.663 18.9984C324.475 18.8923 324.255 18.8568 324.042 18.8982C323.83 18.9398 323.639 19.0555 323.504 19.2249C323.369 19.3944 323.298 19.6063 323.305 19.8231Z" fill="#00B1FF"/>
<path d="M413.508 86.386C413.508 82.7676 415.99 80.3932 418.245 80.3932C419.712 80.3932 421.178 81.2978 421.968 83.2199L421.855 83.3329C421.855 83.6722 422.983 87.0646 426.48 87.8558C427.607 88.0821 428.735 88.1951 429.751 88.1951C437.872 88.1951 443.624 82.4283 443.624 77.1141C443.624 73.2695 440.579 70.2168 436.744 70.2168H434.488C432.796 70.2168 431.217 68.6336 431.217 66.9374C431.217 63.8845 436.969 63.0931 442.045 55.5171C443.963 52.6904 445.316 49.9766 445.316 48.3934C445.316 47.2628 444.752 46.5842 443.399 46.5842C442.722 46.5842 441.932 46.6974 440.917 47.0365C434.15 49.185 431.217 56.5347 428.735 58.0047C428.058 58.457 427.382 58.5702 426.705 58.5702C424.9 58.5702 423.659 56.761 423.659 54.1602C423.659 45.6797 434.15 39.1216 441.932 39.1216C447.572 39.1216 451.52 42.4006 451.52 47.8281C451.52 52.1249 449.039 57.8916 442.722 64.4499C450.054 66.8244 454.002 73.7218 454.002 79.3756C454.002 90.2306 440.24 98.7109 428.623 98.7109C421.404 98.7109 413.508 94.4142 413.508 86.386Z" fill="white"/>
</g>
<defs>
<clipPath id="clip0_61_993">
<rect width="454" height="132" fill="white"/>
</clipPath>
</defs>
</svg>
