<svg width="86" height="86" viewBox="0 0 86 86" fill="none" xmlns="http://www.w3.org/2000/svg">
<rect width="86" height="86" rx="43" fill="white"/>
<path fill-rule="evenodd" clip-rule="evenodd" d="M40.3308 14.1218C36.8334 14.4563 33.6253 15.3544 30.4337 16.8923C27.4196 18.3447 25.2628 19.8519 22.8638 22.1822C20.2633 24.7082 18.614 26.959 17.0324 30.1398C12.8852 38.4811 12.9973 48.2242 17.3356 56.4896C17.9716 57.7012 19.462 60.0155 20.1118 60.8003L20.4133 61.1646L40.7853 40.7943L61.1572 20.4238L60.7929 20.1223C60.008 19.4725 57.6936 17.9822 56.4819 17.3463C51.5489 14.7575 45.7623 13.6022 40.3308 14.1218ZM57.6659 19.6057C57.8471 19.7749 57.9391 20.0018 57.9391 20.2794C57.9391 20.6392 57.8012 20.8394 56.9582 21.7031C56.4186 22.2558 55.8494 22.7325 55.6933 22.7624C55.3179 22.834 54.7122 22.5709 54.5485 22.2649C54.2514 21.7101 54.3849 21.4027 55.3586 20.3985C55.8762 19.8646 56.409 19.3815 56.5426 19.3247C56.8746 19.1836 57.3378 19.2996 57.6659 19.6057ZM42.2433 42.2524C31.0393 53.4556 21.8724 62.6784 21.8724 62.7474C21.8724 62.9055 23.1138 64.1396 23.2729 64.1396C23.4318 64.1396 64.1324 23.4339 64.1324 23.2749C64.1324 23.1168 62.891 21.8827 62.7319 21.8827C62.6672 21.8827 53.4473 31.0491 42.2433 42.2524ZM53.2693 24.0023C53.8237 24.5566 53.6962 24.9376 52.5704 26.0909C52.022 26.6527 51.4522 27.1427 51.3041 27.1799C50.674 27.338 50.0457 26.8228 50.0457 26.148C50.0457 25.7778 50.1751 25.5939 51.0554 24.7137C51.9598 23.8093 52.1122 23.7042 52.5182 23.7042C52.8373 23.7042 53.0594 23.7923 53.2693 24.0023ZM45.1881 45.2585L24.8476 65.5985L25.2119 65.9008C25.9733 66.5323 28.2983 68.0275 29.5229 68.673C39.7508 74.0646 52.3222 72.8221 61.2786 65.5347C64.5125 62.9033 67.0882 59.672 68.9724 55.8825C73.8251 46.1224 72.7841 34.4585 66.2823 25.7429C65.944 25.2895 65.636 24.9184 65.5979 24.9184C65.5598 24.9184 56.3754 34.0714 45.1881 45.2585ZM48.8921 28.4619C49.3971 29.0622 49.2599 29.4093 48.0423 30.6112C47.0437 31.5967 46.9966 31.6266 46.555 31.5559C45.9901 31.4654 45.674 31.097 45.674 30.5289C45.674 30.1467 45.7949 29.9737 46.6836 29.0851C47.5746 28.1942 47.7446 28.0756 48.1301 28.0756C48.4719 28.0756 48.6377 28.1596 48.8921 28.4619ZM66.299 28.27C66.6814 28.5378 66.8269 28.9699 66.6731 29.3809C66.493 29.8624 64.8799 31.4521 64.4829 31.5393C64.103 31.6227 63.4733 31.3461 63.3578 31.0451C63.3164 30.937 63.2824 30.679 63.2824 30.4716C63.2824 30.1612 63.4605 29.9166 64.292 29.0851C65.3773 28 65.7167 27.8621 66.299 28.27ZM44.49 32.8251C44.6068 32.9658 44.7025 33.2763 44.7025 33.515C44.7025 33.8972 44.5815 34.0702 43.6929 34.9588C42.811 35.8406 42.6292 35.9684 42.2568 35.9684C41.6904 35.9684 41.2537 35.5162 41.2537 34.9299C41.2537 34.5646 41.3806 34.3763 42.1584 33.5867C42.656 33.0815 43.1724 32.6199 43.306 32.5607C43.6636 32.4023 44.2471 32.5326 44.49 32.8251ZM61.742 32.5882C62.1417 32.801 62.3027 33.0701 62.307 33.532C62.3104 33.895 62.1797 34.0803 61.3012 34.9588C60.4209 35.839 60.2371 35.9684 59.8668 35.9684C59.192 35.9684 58.6767 35.3401 58.8348 34.7101C58.872 34.562 59.3621 33.9922 59.9239 33.4439C60.9676 32.4252 61.2162 32.3083 61.742 32.5882ZM39.8363 36.996C40.2245 37.1967 40.3308 37.4005 40.3308 37.9437C40.3308 38.2541 40.1526 38.4987 39.3211 39.3302C38.4425 40.2086 38.2572 40.3393 37.8943 40.3359C37.4275 40.3316 37.1632 40.1706 36.9423 39.7558C36.6844 39.2718 36.8946 38.8514 37.8763 37.8874C39.0373 36.7472 39.2064 36.6703 39.8363 36.996ZM57.6659 37.2546C58.1856 37.8363 58.0549 38.2049 56.9295 39.3302C56.0408 40.2188 55.8678 40.3397 55.4856 40.3397C54.9183 40.3397 54.549 40.0239 54.4589 39.4615C54.3892 39.0258 54.4236 38.9697 55.343 38.0215C55.8692 37.4789 56.409 36.9885 56.5426 36.9318C56.9028 36.7786 57.3573 36.9093 57.6659 37.2546ZM35.719 41.6458C36.1802 42.2322 36.0538 42.5795 34.9781 43.6816C34.4385 44.2342 33.8694 44.7109 33.7132 44.7408C33.3378 44.8124 32.7321 44.5493 32.5684 44.2433C32.2761 43.6973 32.4075 43.3805 33.3178 42.4362C34.547 41.1612 35.175 40.9544 35.719 41.6458ZM53.3872 41.715C53.7611 42.2488 53.6246 42.6135 52.687 43.5861C51.4578 44.8611 50.8297 45.0679 50.2858 44.3765C49.824 43.7894 49.9506 43.4432 51.0325 42.3349C51.5752 41.7789 52.1353 41.3053 52.2773 41.2824C52.6615 41.2205 53.183 41.4237 53.3872 41.715ZM31.2133 45.8951C31.3562 46.0119 31.5059 46.3119 31.546 46.5617C31.6162 47.0002 31.5839 47.0514 30.606 48.0533C30.0489 48.6239 29.467 49.1224 29.3128 49.1611C28.9627 49.249 28.3375 48.9992 28.1825 48.7096C28.1182 48.5895 28.0656 48.3137 28.0656 48.0965C28.0656 47.7637 28.2241 47.5433 29.0753 46.6921C29.9639 45.8035 30.137 45.6826 30.5191 45.6826C30.7579 45.6826 31.0702 45.7783 31.2133 45.8951ZM48.8454 45.9124C49.06 46.0862 49.1295 46.2647 49.1295 46.6428C49.1295 47.1076 49.0583 47.2145 48.1321 48.1405C47.206 49.0666 47.0992 49.1378 46.6343 49.1378C46.0163 49.1378 45.674 48.7786 45.674 48.1306C45.674 47.7427 45.7911 47.5736 46.6732 46.6869C47.562 45.7936 47.7214 45.6826 48.1169 45.6826C48.3723 45.6826 48.6825 45.7804 48.8454 45.9124ZM26.8188 50.2927C27.484 50.9122 27.3439 51.3456 26.0809 52.5784C25.2371 53.402 24.9924 53.5754 24.6748 53.5754C24.1284 53.5754 23.6939 53.1107 23.6939 52.5262C23.6939 52.1203 23.7991 51.9679 24.7035 51.0635C25.5838 50.1833 25.7677 50.054 26.1379 50.054C26.3924 50.054 26.6653 50.1497 26.8188 50.2927ZM44.4044 50.3521C44.6129 50.5604 44.7025 50.7844 44.7025 51.0968C44.7025 51.4912 44.5899 51.6583 43.7391 52.5262C42.8387 53.445 42.7426 53.5092 42.2689 53.5092C41.6399 53.5092 41.3023 53.1535 41.3023 52.4907C41.3023 52.0854 41.4051 51.9395 42.3197 51.0469C43.4687 49.9255 43.8505 49.7981 44.4044 50.3521ZM22.4363 54.7131C22.6901 54.9315 22.771 55.1103 22.771 55.4529C22.771 55.8598 22.6674 56.0065 21.7314 56.9258C20.5923 58.0445 20.2501 58.1732 19.6569 57.7067C18.9654 57.1628 19.1722 56.5348 20.4473 55.3057C21.4773 54.3129 21.8441 54.2038 22.4363 54.7131ZM40.1183 54.7994C40.2352 54.9424 40.3308 55.2547 40.3308 55.4934C40.3308 55.8756 40.2098 56.0486 39.3211 56.9372C38.4859 57.7723 38.2457 57.9468 37.9313 57.9468C37.3584 57.9468 36.882 57.4802 36.882 56.9192C36.882 56.5119 36.9859 56.3653 37.9379 55.4304C38.9608 54.4256 39.008 54.3956 39.4497 54.4664C39.7005 54.5066 40.0013 54.6564 40.1183 54.7994ZM35.3902 58.938C35.7899 59.1508 35.9509 59.4199 35.9552 59.8818C35.9586 60.2448 35.8279 60.4301 34.9494 61.3086C34.045 62.213 33.8925 62.3182 33.4866 62.3182C32.898 62.3182 32.4374 61.8841 32.4374 61.3293C32.4374 60.9971 32.6028 60.7712 33.5073 59.8667C34.6061 58.768 34.8474 58.649 35.3902 58.938ZM31.4071 63.6935C31.7965 64.2495 31.6528 64.5925 30.5663 65.6986C29.6629 66.6183 29.4952 66.7381 29.1123 66.7381C28.5214 66.7381 28.0656 66.3048 28.0656 65.7429C28.0656 65.3829 28.204 65.1825 29.0524 64.3133C29.5951 63.7573 30.1552 63.2838 30.2972 63.2608C30.6814 63.1989 31.203 63.4021 31.4071 63.6935Z" fill="#00B1FF"/>
</svg>
