<svg width="86" height="86" viewBox="0 0 86 86" fill="none" xmlns="http://www.w3.org/2000/svg">
<rect width="86" height="86" rx="43" fill="white"/>
<path fill-rule="evenodd" clip-rule="evenodd" d="M60.6071 12.0926C60.2729 12.2141 59.2037 13.7943 55.5625 19.5485C50.0968 28.1866 49.7853 28.6412 48.8949 29.2835L48.2097 29.7777L48.677 30.5824C49.734 32.4027 51.3092 33.4396 53.2684 33.6045L54.3656 33.6969L54.4737 33.018C54.5332 32.6446 54.7076 32.0545 54.8615 31.7066C55.0154 31.3588 57.3601 27.5682 60.072 23.283C65.2893 15.0389 65.3737 14.8726 64.7081 14.1549C64.3474 13.7661 61.7735 12.1336 61.3427 12.0203C61.1714 11.9752 60.8404 12.0078 60.6071 12.0926ZM43.4508 30.8787C33.5788 46.398 22.7809 63.5026 22.4509 64.1438C21.8654 65.2813 21.8494 66.5778 22.407 67.7017C22.6216 68.1342 22.9544 68.6308 23.1468 68.8053C23.6575 69.2687 29.8178 73.1759 30.2461 73.3081C31.3513 73.6493 33.1006 73.2184 33.7943 72.4342C34.2367 71.9342 55.6835 38.0498 55.7714 37.7121C55.8106 37.5617 55.6673 37.2864 55.4399 37.0746C55.2199 36.8695 54.8455 36.3155 54.6083 35.8434L54.1767 34.9852L53.1922 34.876C51.9654 34.7401 51.2825 34.5242 50.2715 33.953C49.3375 33.4254 48.0372 32.0935 47.583 31.1994C47.2139 30.4728 47.0024 30.354 46.2833 30.4703C45.9964 30.5167 45.4574 30.4446 45.0672 30.3077C44.6818 30.1726 44.2779 30.061 44.1698 30.0598C44.0616 30.0585 43.7381 30.4271 43.4508 30.8787Z" fill="#00B13C"/>
</svg>
